@startumld Diagrama
Persona o-- Foco
class Persona
class Foco{
    - Bool encendido
    + Encender()
    + Apagar()
    
}

class Juego
class Mapa
class Jugador
class Serpiente
class Eslabon
class Cabeza
class Manzana

Juego "1" *-- "1" Jugador
juego "1" *-- "1" Mapa
Jugador "1" o-- "1" Serpiente
Serpiente "1" *-- "1" Cabeza
Cabeza --|> Eslabon
Cabeza "1" o-- "1" Fruta
Eslabon --|> Colisionable
Pared --|> Colisionable
Mapa "1" *-- "4" Pared

class Dibujo
class Lienza 
class ParticipantBorderColor

Lienzo "1" *-- "*" Dibujo
Pintor "1" *-- "*" Dibujo
Pintor o-- Lienzo

Eslabon --|> Dibujo
Fruta --|> Dibujo
Mapa --|> Dibujo


Juego "1" o-- "1" Pintor



@enduml
